<svg xmlns="http://www.w3.org/2000/svg" width="1024" height="1024" viewBox="0 0 1024 1024">
<g>
<path d="M 0.00 0.00 L 1024.00 0.00 L 1024.00 1024.00 L 0.00 1024.00 ZM 389.75 883.23 C402.81,883.38 419.69,883.52 427.25,883.54 L 441.00 883.58 L 441.00 348.91 L 528.25 349.27 C612.89,349.62 615.75,349.69 624.00,351.73 C658.54,360.27 686.80,379.66 705.09,407.37 C715.41,422.99 721.56,437.85 725.68,457.13 C728.20,468.91 728.21,496.18 725.69,508.00 C719.30,537.98 706.13,562.02 684.86,582.53 C666.00,600.73 644.56,611.89 616.50,618.10 C606.87,620.23 604.08,620.33 541.75,620.73 L 477.00 621.15 L 477.00 692.13 L 546.25 691.74 C622.04,691.32 621.70,691.34 645.87,684.93 C703.62,669.60 751.68,629.37 778.99,573.50 C785.98,559.21 790.10,547.74 794.08,531.50 C809.50,468.65 794.35,399.58 754.28,350.00 C746.13,339.92 727.29,321.68 717.74,314.63 C691.09,294.97 663.85,283.65 627.97,277.34 C619.56,275.87 604.43,275.64 492.25,275.30 L 366.00 274.91 L 366.00 882.96 ZM 214.89 885.71 C222.84,889.06 234.82,888.59 243.72,884.56 C251.34,881.12 259.00,873.37 262.80,865.25 C265.20,860.15 265.50,858.31 265.50,849.00 C265.50,839.72 265.19,837.84 262.84,832.82 C261.38,829.70 258.29,825.10 255.99,822.60 C252.11,818.40 241.46,812.00 238.34,812.00 C237.22,812.00 237.03,792.92 237.25,697.89 L 237.50 583.78 L 242.74 581.82 C250.17,579.05 258.19,571.38 262.23,563.20 C265.05,557.46 265.55,555.32 265.83,547.53 C266.11,540.15 265.77,537.44 264.00,532.72 C260.06,522.20 251.78,513.78 241.96,510.29 L 237.00 508.53 L 237.01 490.02 C237.02,467.20 238.27,451.84 241.63,433.00 C249.73,387.68 264.65,350.27 289.50,313.00 C302.53,293.45 312.43,281.35 328.39,265.45 C362.24,231.73 398.52,208.57 445.11,190.93 C461.90,184.58 503.60,172.76 504.32,174.15 C504.42,174.34 505.78,177.06 507.34,180.19 C510.83,187.18 519.22,195.30 526.25,198.50 C551.10,209.83 579.89,194.97 585.62,167.86 C589.60,148.98 579.19,128.60 561.28,120.21 C556.09,117.78 554.37,117.50 544.50,117.50 C534.25,117.50 533.06,117.71 527.00,120.61 C523.42,122.32 518.43,125.56 515.90,127.82 C511.16,132.03 504.78,142.83 503.53,148.75 L 502.84 152.00 L 237.00 152.00 L 237.00 124.00 L 171.97 124.00 L 172.24 158.25 L 172.50 192.50 L 236.93 193.03 L 237.50 170.50 L 341.25 170.32 C404.99,170.20 445.00,170.49 445.00,171.07 C445.00,171.58 444.42,172.00 443.71,172.00 C441.12,172.00 419.12,181.29 403.50,188.97 C360.50,210.13 321.01,241.68 291.50,278.48 C265.14,311.35 243.04,353.90 231.47,394.09 C222.72,424.50 219.03,451.79 219.01,486.17 L 219.00 508.84 L 216.05 509.49 C211.67,510.45 201.90,517.12 198.69,521.34 C197.14,523.37 194.67,527.61 193.19,530.76 C190.83,535.79 190.50,537.74 190.50,546.50 C190.50,556.21 190.61,556.71 194.40,563.81 C198.99,572.38 206.13,579.15 213.50,581.91 L 218.50 583.78 L 218.75 697.73 L 219.01 811.68 L 215.21 812.82 C206.09,815.55 198.22,823.02 193.23,833.66 C190.83,838.80 190.50,840.69 190.50,849.50 C190.50,858.21 190.84,860.22 193.14,865.12 C197.65,874.74 204.68,881.40 214.89,885.71 ZM 818.57 342.75 C819.13,345.43 820.66,345.70 821.37,343.25 C821.65,342.29 823.06,335.42 824.52,328.00 C833.29,283.15 837.26,276.11 858.40,267.97 C865.30,265.32 889.12,259.09 898.31,257.53 C904.62,256.46 902.04,254.76 890.44,252.33 C865.58,247.12 846.74,239.89 840.99,233.34 C836.93,228.71 834.69,224.07 831.52,213.66 C828.83,204.83 822.02,173.29 821.99,169.50 C821.97,167.30 820.38,164.28 819.64,165.03 C819.38,165.29 817.55,173.60 815.57,183.50 C811.73,202.69 806.95,220.20 803.94,226.12 C797.99,237.79 785.17,244.17 753.05,251.44 C745.10,253.24 738.43,255.20 738.23,255.80 C738.03,256.40 739.59,257.16 741.69,257.51 C751.42,259.09 777.27,266.04 784.20,268.93 C788.44,270.70 793.92,273.69 796.39,275.57 C804.18,281.52 808.92,294.03 814.94,324.50 C816.68,333.30 818.31,341.51 818.57,342.75 ZM 895.52 185.36 C896.44,189.68 897.51,192.83 897.91,192.36 C898.30,191.89 899.65,186.77 900.90,181.00 C904.01,166.65 905.92,162.59 910.67,160.20 C915.47,157.79 922.79,155.47 930.25,153.99 C933.41,153.37 936.00,152.50 936.00,152.06 C936.00,151.62 933.19,150.73 929.75,150.08 C920.98,148.42 911.55,145.22 908.62,142.91 C905.49,140.45 902.67,133.01 900.50,121.46 C898.56,111.16 898.13,109.54 897.49,110.18 C897.24,110.43 896.12,115.11 895.00,120.57 C892.11,134.69 890.30,139.57 886.87,142.46 C883.98,144.89 871.46,149.23 863.75,150.48 C857.60,151.48 858.80,152.97 867.00,154.51 C875.17,156.05 884.13,159.24 886.96,161.62 C890.19,164.34 892.33,170.27 895.52,185.36 Z" fill="#4a4a4a"/>
<path d="M 214.89 885.71 C204.68,881.40 197.65,874.74 193.14,865.12 C190.84,860.22 190.50,858.21 190.50,849.50 C190.50,840.69 190.83,838.80 193.23,833.66 C198.22,823.02 206.09,815.55 215.21,812.82 L 219.01 811.68 L 218.75 697.73 L 218.50 583.78 L 213.50 581.91 C206.13,579.15 198.99,572.38 194.40,563.81 C190.61,556.71 190.50,556.21 190.50,546.50 C190.50,537.74 190.83,535.79 193.19,530.76 C194.67,527.61 197.14,523.37 198.69,521.34 C201.90,517.12 211.67,510.45 216.05,509.49 L 219.00 508.84 L 219.01 486.17 C219.03,451.79 222.72,424.50 231.47,394.09 C243.04,353.90 265.14,311.35 291.50,278.48 C321.01,241.68 360.50,210.13 403.50,188.97 C419.12,181.29 441.12,172.00 443.71,172.00 C444.42,172.00 445.00,171.58 445.00,171.07 C445.00,170.49 404.99,170.20 341.25,170.32 L 237.50 170.50 L 237.22 181.76 L 236.93 193.03 L 204.72 192.76 L 172.50 192.50 L 172.24 158.25 L 171.97 124.00 L 204.49 124.00 L 237.00 124.00 L 237.00 138.00 L 237.00 152.00 L 369.92 152.00 L 502.84 152.00 L 503.53 148.75 C504.78,142.83 511.16,132.03 515.90,127.82 C518.43,125.56 523.42,122.32 527.00,120.61 C533.06,117.71 534.25,117.50 544.50,117.50 C554.37,117.50 556.09,117.78 561.28,120.21 C579.19,128.60 589.60,148.98 585.62,167.86 C579.89,194.97 551.10,209.83 526.25,198.50 C519.22,195.30 510.83,187.18 507.34,180.19 C505.78,177.06 504.42,174.34 504.32,174.15 C503.60,172.76 461.90,184.58 445.11,190.93 C398.52,208.57 362.24,231.73 328.39,265.45 C312.43,281.35 302.53,293.45 289.50,313.00 C264.65,350.27 249.73,387.68 241.63,433.00 C238.27,451.84 237.02,467.20 237.01,490.02 L 237.00 508.53 L 241.96 510.29 C251.78,513.78 260.06,522.20 264.00,532.72 C265.77,537.44 266.11,540.15 265.83,547.53 C265.55,555.32 265.05,557.46 262.23,563.20 C258.19,571.38 250.17,579.05 242.74,581.82 L 237.50 583.78 L 237.25 697.89 C237.03,792.92 237.22,812.00 238.34,812.00 C241.46,812.00 252.11,818.40 255.99,822.60 C258.29,825.10 261.38,829.70 262.84,832.82 C265.19,837.84 265.50,839.72 265.50,849.00 C265.50,858.31 265.20,860.15 262.80,865.25 C259.00,873.37 251.34,881.12 243.72,884.56 C234.82,888.59 222.84,889.06 214.89,885.71 ZM 389.75 883.23 L 366.00 882.96 L 366.00 578.94 L 366.00 274.91 L 492.25 275.30 C604.43,275.64 619.56,275.87 627.97,277.34 C663.85,283.65 691.09,294.97 717.74,314.63 C727.29,321.68 746.13,339.92 754.28,350.00 C794.35,399.58 809.50,468.65 794.08,531.50 C790.10,547.74 785.98,559.21 778.99,573.50 C751.68,629.37 703.62,669.60 645.87,684.93 C621.70,691.34 622.04,691.32 546.25,691.74 L 477.00 692.13 L 477.00 656.64 L 477.00 621.15 L 541.75 620.73 C604.08,620.33 606.87,620.23 616.50,618.10 C644.56,611.89 666.00,600.73 684.86,582.53 C706.13,562.02 719.30,537.98 725.69,508.00 C728.21,496.18 728.20,468.91 725.68,457.13 C721.56,437.85 715.41,422.99 705.09,407.37 C686.80,379.66 658.54,360.27 624.00,351.73 C615.75,349.69 612.89,349.62 528.25,349.27 L 441.00 348.91 L 441.00 616.24 L 441.00 883.58 L 427.25 883.54 C419.69,883.52 402.81,883.38 389.75,883.23 ZM 818.57 342.75 C818.31,341.51 816.68,333.30 814.94,324.50 C808.92,294.03 804.18,281.52 796.39,275.57 C793.92,273.69 788.44,270.70 784.20,268.93 C777.27,266.04 751.42,259.09 741.69,257.51 C739.59,257.16 738.03,256.40 738.23,255.80 C738.43,255.20 745.10,253.24 753.05,251.44 C785.17,244.17 797.99,237.79 803.94,226.12 C806.95,220.20 811.73,202.69 815.57,183.50 C817.55,173.60 819.38,165.29 819.64,165.03 C820.38,164.28 821.97,167.30 821.99,169.50 C822.02,173.29 828.83,204.83 831.52,213.66 C834.69,224.07 836.93,228.71 840.99,233.34 C846.74,239.89 865.58,247.12 890.44,252.33 C902.04,254.76 904.62,256.46 898.31,257.53 C889.12,259.09 865.30,265.32 858.40,267.97 C837.26,276.11 833.29,283.15 824.52,328.00 C823.06,335.42 821.65,342.29 821.37,343.25 C820.66,345.70 819.13,345.43 818.57,342.75 ZM 895.52 185.36 C892.33,170.27 890.19,164.34 886.96,161.62 C884.13,159.24 875.17,156.05 867.00,154.51 C858.80,152.97 857.60,151.48 863.75,150.48 C871.46,149.23 883.98,144.89 886.87,142.46 C890.30,139.57 892.11,134.69 895.00,120.57 C896.12,115.11 897.24,110.43 897.49,110.18 C898.13,109.54 898.56,111.16 900.50,121.46 C902.67,133.01 905.49,140.45 908.62,142.91 C911.55,145.22 920.98,148.42 929.75,150.08 C933.19,150.73 936.00,151.62 936.00,152.06 C936.00,152.50 933.41,153.37 930.25,153.99 C922.79,155.47 915.47,157.79 910.67,160.20 C905.92,162.59 904.01,166.65 900.90,181.00 C899.65,186.77 898.30,191.89 897.91,192.36 C897.51,192.83 896.44,189.68 895.52,185.36 Z" fill="#F5F5F5"/>
</g>
</svg>